<svg version="1.1" id="Layer_1" xmlns="http://www.w3.org/2000/svg" xmlns:xlink="http://www.w3.org/1999/xlink" x="0px" y="0px"
	 width="100%" viewBox="0 0 500 500" enable-background="new 0 0 500 500" xml:space="preserve">
<path fill="#000000" opacity="1.000000" stroke="none" 
	d="
M272.000000,501.000000 
	C181.333359,501.000000 91.166710,501.000000 1.000048,501.000000 
	C1.000032,334.333405 1.000032,167.666794 1.000016,1.000138 
	C167.666565,1.000092 334.333130,1.000092 500.999756,1.000046 
	C500.999847,167.666519 500.999847,334.333038 500.999939,500.999786 
	C424.833344,501.000000 348.666656,501.000000 272.000000,501.000000 
M134.994995,391.005341 
	C134.994995,391.005341 134.902832,391.006104 135.062790,391.542511 
	C135.373672,391.727783 135.684540,391.913086 135.995148,392.005157 
	C135.995148,392.005157 135.901962,392.005920 136.062744,392.542297 
	C136.373199,392.729309 136.683670,392.916351 136.996597,393.006714 
	C136.996597,393.006714 136.899948,393.004700 137.066727,393.538330 
	C137.375656,393.728149 137.684586,393.917969 137.993729,394.007660 
	C137.993729,394.007660 137.893585,394.008148 138.066925,394.539856 
	C138.376770,394.727844 138.686615,394.915802 138.993805,395.004639 
	C138.993805,395.004639 138.894669,395.007782 139.062256,395.542480 
	C139.373184,395.729065 139.684128,395.915619 139.994888,396.006073 
	C139.994888,396.006073 139.898773,396.006744 140.051910,396.546539 
	C140.361984,396.735596 140.672058,396.924652 140.981110,397.022247 
	C140.981110,397.022247 140.889679,397.025208 141.057251,397.519958 
	C141.354416,397.620758 141.651566,397.721558 142.587845,398.087402 
	C146.491196,401.625092 150.110519,405.554108 154.348892,408.630219 
	C169.701263,419.772614 185.916473,429.406097 203.676697,436.360199 
	C214.070099,440.429779 224.379532,443.630615 235.845139,443.139313 
	C250.295029,442.520081 264.791595,442.989960 279.268005,442.989960 
	C287.045776,442.989990 294.823547,442.989960 302.784424,442.989960 
	C302.784424,439.839722 302.784424,437.103302 302.784424,433.562897 
	C299.307129,434.136353 296.156891,434.655853 292.077911,435.022705 
	C281.731201,435.072723 271.384521,435.122711 260.144562,435.029327 
	C252.488480,433.693542 244.801010,432.514496 237.183060,430.988464 
	C222.537430,428.054626 208.581818,423.024109 195.127029,416.580261 
	C193.027649,415.574829 190.895599,414.827728 192.847610,411.550110 
	C198.742828,401.651428 204.391846,391.604706 210.051636,381.567627 
	C215.621613,371.689789 220.986588,361.695221 226.638687,351.865204 
	C229.766373,346.425598 233.298172,341.218384 237.104126,336.438965 
	C237.441101,336.762909 237.778076,337.086884 238.396378,337.955231 
	C242.258987,340.675446 245.128860,345.477142 251.671112,343.940002 
	C251.887985,343.895538 252.104843,343.851044 252.708984,343.839081 
	C252.708984,343.839081 253.019485,344.072784 253.255432,344.739685 
	C254.557892,345.123505 255.860352,345.507355 257.616516,345.919464 
	C257.616516,345.919464 258.021454,346.125977 258.393677,346.546265 
	C258.912659,346.699615 259.431641,346.852997 260.486359,347.002899 
	C260.646179,347.082642 260.805969,347.162354 261.053009,347.980927 
	C263.367126,348.642914 265.681213,349.304901 268.509796,349.979706 
	C268.670654,350.039307 268.831482,350.098877 269.238800,350.803314 
	C277.554016,353.140747 285.863831,355.497925 294.197998,357.765717 
	C294.690857,357.899811 295.379425,357.314606 296.651703,356.975616 
	C297.098816,357.042053 297.545929,357.108490 298.385803,357.694885 
	C299.912262,357.805878 301.438690,357.916901 303.645416,357.928894 
	C304.095306,358.001282 304.545227,358.073700 305.322540,358.838928 
	C312.947937,359.011353 320.573151,359.196106 328.199463,359.303223 
	C328.457214,359.306854 328.725922,358.528503 329.633698,357.919098 
	C330.303406,357.870239 330.973145,357.821381 332.269348,357.886841 
	C332.843567,357.647430 333.417816,357.408020 334.658264,357.018036 
	C335.111420,357.030334 335.564606,357.042633 336.601166,357.480072 
	C340.940430,357.153046 345.553528,357.712067 348.979370,353.972961 
	C348.979370,353.972961 348.746582,353.735565 349.226868,353.726105 
	C349.544220,353.626465 349.800446,353.441925 350.485413,352.992432 
	C350.659363,352.994873 350.833344,352.997345 351.820038,353.069366 
	C354.136414,351.967468 356.452789,350.865540 358.906494,349.926422 
	C358.906494,349.926422 358.797455,349.743500 359.480286,349.844208 
	C360.327423,349.266541 361.174561,348.688904 362.087311,347.998657 
	C362.087311,347.998657 362.199188,348.065460 362.746674,348.040283 
	C363.166321,347.704498 363.585968,347.368713 364.007568,346.990082 
	C364.007568,346.990082 364.040222,347.017883 364.629517,346.987610 
	C365.055878,346.613586 365.482269,346.239563 365.970520,345.963654 
	C365.970520,345.963654 365.877319,345.894592 366.350739,345.759583 
	C366.646271,345.592987 366.870911,345.358490 367.025848,344.995514 
	C367.025848,344.995514 367.067352,345.039764 367.656799,345.005615 
	C368.086792,344.630371 368.516785,344.255127 369.150482,343.427979 
	C369.372681,343.148865 369.662170,343.009735 370.703644,343.016663 
	C371.425537,342.300720 372.147400,341.584747 372.989380,340.995941 
	C372.989380,340.995941 372.878571,340.861298 373.607025,340.903046 
	C374.753082,339.669647 375.899170,338.436249 377.205872,336.904144 
	C377.205872,336.904144 377.529846,336.803741 378.104858,336.602997 
	C378.340118,336.283325 378.575378,335.963654 378.926636,335.237335 
	C379.075165,334.972046 379.299316,334.814209 380.341675,334.762726 
	C381.206573,333.481415 382.071472,332.200134 383.070160,330.443878 
	C383.231445,330.126434 383.487061,329.934875 384.349976,329.593201 
	C384.573547,329.075562 384.797150,328.557922 384.992249,328.007233 
	C384.992249,328.007233 385.035583,328.011292 385.439880,327.737976 
	C385.693970,327.509064 385.837097,327.224396 385.985107,326.966278 
	C385.985107,326.966278 385.883820,326.866089 386.616180,326.778503 
	C387.367615,325.123901 388.119080,323.469299 388.931366,321.383209 
	C388.931366,321.383209 389.170197,321.018738 389.808899,320.787415 
	C390.158173,319.777344 390.507477,318.767273 390.875702,317.341187 
	C390.875702,317.341187 391.086243,316.981873 391.490845,316.573425 
	C391.639740,316.037964 391.788605,315.502502 391.995697,314.200165 
	C393.237793,308.716125 395.068329,303.289551 395.610657,297.737183 
	C397.180908,281.660980 393.405029,267.054901 381.693451,255.314453 
	C373.691681,247.292938 363.614532,242.609558 353.044586,239.036438 
	C344.484192,236.142639 335.754852,233.749542 327.188354,230.872589 
	C323.781738,229.728500 320.211365,227.434219 321.260498,223.422211 
	C322.031830,220.472519 324.473602,217.010971 327.114594,215.742996 
	C330.295959,214.215591 334.532471,214.178635 338.213531,214.530045 
	C349.908752,215.646545 360.109619,220.757431 369.684052,227.301651 
	C375.382568,231.196609 376.069397,230.949203 379.137329,224.561996 
	C383.808563,214.836655 388.494476,205.118362 393.173889,195.396942 
	C399.250366,182.773041 400.735382,184.683655 386.319580,176.320908 
	C372.332275,168.206741 357.006683,164.258987 340.752411,162.772888 
	C327.589325,161.569382 314.869934,162.439117 302.383911,166.129486 
	C286.021515,170.965576 271.870728,179.500198 261.901306,193.741653 
	C255.661469,202.655350 251.986435,212.563721 250.650116,223.553085 
	C248.895752,237.980392 251.739761,250.820648 261.414368,261.793854 
	C270.420868,272.009338 282.415741,277.204651 295.128693,280.966705 
	C302.752472,283.222748 310.488068,285.101868 318.106750,287.373871 
	C322.421326,288.660553 324.756989,291.934418 324.607819,296.390564 
	C324.472260,300.440704 321.834412,302.684357 318.084961,304.180084 
	C310.826904,307.075531 303.740906,306.205719 296.501068,304.244843 
	C284.868958,301.094360 275.208679,294.621765 266.262848,286.851746 
	C264.163605,285.028412 262.135101,282.796387 258.350098,284.801788 
	C254.048752,272.793945 246.204193,266.603027 232.790955,267.863495 
	C224.697693,268.624054 216.473785,268.055664 208.310272,267.951630 
	C206.812866,267.932556 205.323608,267.275513 203.969452,266.001282 
	C203.979828,255.291794 204.025024,244.582077 203.956573,233.873093 
	C203.948013,232.531982 203.339401,231.194702 203.000748,229.079681 
	C201.110260,220.607651 193.457596,211.204422 183.648361,211.880798 
	C175.195358,212.463684 166.670273,212.001266 158.177063,212.001022 
	C155.800995,212.000961 153.424911,212.001022 149.806839,212.001022 
	C152.008835,209.640671 153.184158,208.319000 154.424042,207.060928 
	C177.340576,183.808304 200.199249,160.498001 223.236801,137.365845 
	C228.520874,132.060059 229.931213,119.958260 223.893265,113.787155 
	C218.123596,107.890236 210.848724,103.416603 204.024170,98.617867 
	C199.126907,95.174316 193.881699,92.225586 188.397385,88.810562 
	C191.082657,87.306084 193.125854,85.992416 195.304855,84.967430 
	C211.609009,77.298042 228.392166,71.422791 246.403107,68.828110 
	C262.932037,66.446915 279.373383,65.350487 295.988281,66.997360 
	C301.855804,67.578949 303.107056,66.288040 302.626923,59.206886 
	C276.070618,59.140999 249.514328,59.067936 222.957993,59.049229 
	C222.271744,59.048744 221.585083,59.643108 220.093231,59.996315 
	C219.127365,60.133606 218.119980,60.138969 217.201828,60.427887 
	C202.488770,65.057724 188.089813,70.578575 175.193893,79.106255 
	C164.242447,86.348122 153.314392,93.831604 143.407791,102.400986 
	C126.839622,116.732712 112.852943,133.564178 102.723839,153.050156 
	C96.273476,165.459122 90.704292,178.472626 86.237411,191.719971 
	C82.644890,202.374268 81.009659,213.734909 79.033386,224.875702 
	C76.733231,237.842331 75.763229,250.926102 78.020706,264.918121 
	C78.340622,267.996124 78.660545,271.074097 79.013420,274.593262 
	C79.013420,274.593262 79.160889,275.010345 79.017578,275.822662 
	C79.335434,277.592926 79.653290,279.363220 80.012024,281.567932 
	C80.012024,281.567932 80.154518,281.980408 80.006592,282.800232 
	C80.326653,284.577911 80.646713,286.355591 80.996704,288.960999 
	C81.324104,290.367584 81.699493,291.764954 81.971756,293.182129 
	C86.480232,316.649902 95.409943,338.361633 108.737129,358.124878 
	C115.248528,367.780731 122.786591,376.744293 130.057129,386.546448 
	C130.363449,386.746033 130.669769,386.945618 131.089966,387.586761 
	C131.265106,387.871277 131.519699,388.016907 132.054810,388.547668 
	C132.368530,388.730927 132.682251,388.914185 132.995667,389.005554 
	C132.995667,389.005554 132.903778,389.006317 133.061722,389.543884 
	C133.373077,389.728882 133.684448,389.913879 133.994537,390.004852 
	C133.994537,390.004852 133.900558,390.006592 134.061584,390.543030 
	C134.372803,390.727875 134.684036,390.912689 134.994995,391.005341 
z"/>
<path fill="#3AB5FC" opacity="1.000000" stroke="none" 
	d="
M377.529846,336.803741 
	C377.529846,336.803741 377.205872,336.904144 376.821594,337.135132 
	C375.251038,338.531189 374.064819,339.696259 372.878571,340.861298 
	C372.878571,340.861298 372.989380,340.995941 372.627075,340.992157 
	C371.516174,341.662445 370.767548,342.336517 370.018951,343.010590 
	C369.662170,343.009735 369.372681,343.148865 368.760834,343.692322 
	C367.936584,344.317688 367.501953,344.678741 367.067352,345.039764 
	C367.067352,345.039764 367.025848,344.995514 366.753265,345.022583 
	C366.279572,345.331268 366.078461,345.612946 365.877319,345.894592 
	C365.877319,345.894592 365.970520,345.963654 365.652557,345.951843 
	C364.903137,346.299347 364.471680,346.658600 364.040222,347.017883 
	C364.040222,347.017883 364.007568,346.990082 363.731323,347.011322 
	C363.036407,347.376862 362.617798,347.721161 362.199188,348.065460 
	C362.199188,348.065460 362.087311,347.998657 361.739502,348.048950 
	C360.526947,348.647339 359.662201,349.195435 358.797455,349.743530 
	C358.797455,349.743500 358.906494,349.926422 358.479370,349.870300 
	C355.703979,350.876038 353.355652,351.937927 351.007355,352.999847 
	C350.833344,352.997345 350.659363,352.994873 349.983643,353.034271 
	C349.236755,353.295929 348.991669,353.515747 348.746582,353.735565 
	C348.746582,353.735565 348.979370,353.972961 348.477570,353.879181 
	C343.989777,354.875244 340.003754,355.965088 336.017761,357.054932 
	C335.564606,357.042633 335.111420,357.030334 334.007355,357.021667 
	C332.785248,357.274353 332.214050,357.523438 331.642853,357.772522 
	C330.973145,357.821381 330.303406,357.870239 328.851257,357.932312 
	C320.377594,358.012390 312.686371,358.079254 304.995117,358.146118 
	C304.545227,358.073700 304.095306,358.001282 302.987305,357.802124 
	C300.883820,357.508545 299.438416,357.341705 297.993042,357.174927 
	C297.545929,357.108490 297.098816,357.042053 295.972198,356.844727 
	C286.525909,354.528748 277.759094,352.343628 268.992310,350.158508 
	C268.831482,350.098877 268.670654,350.039307 268.035706,349.702209 
	C265.363037,348.697174 263.164398,347.969635 260.965790,347.242065 
	C260.805969,347.162354 260.646179,347.082642 260.045227,346.776489 
	C259.076538,346.408691 258.549011,346.267334 258.021454,346.125977 
	C258.021454,346.125977 257.616516,345.919464 257.204803,345.624176 
	C255.535233,344.910187 254.277359,344.491486 253.019485,344.072784 
	C253.019485,344.072784 252.708984,343.839081 252.384094,343.574585 
	C251.706696,343.224762 251.354202,343.139374 250.704712,342.863525 
	C246.310181,340.918945 242.212616,339.164886 238.115051,337.410828 
	C237.778076,337.086884 237.441101,336.762909 236.869904,335.759979 
	C237.159958,333.034241 237.377686,330.844147 238.257095,328.963470 
	C245.108505,314.311096 252.087265,299.718262 259.026642,285.107025 
	C262.135101,282.796387 264.163605,285.028412 266.262848,286.851746 
	C275.208679,294.621765 284.868958,301.094360 296.501068,304.244843 
	C303.740906,306.205719 310.826904,307.075531 318.084961,304.180084 
	C321.834412,302.684357 324.472260,300.440704 324.607819,296.390564 
	C324.756989,291.934418 322.421326,288.660553 318.106750,287.373871 
	C310.488068,285.101868 302.752472,283.222748 295.128693,280.966705 
	C282.415741,277.204651 270.420868,272.009338 261.414368,261.793854 
	C251.739761,250.820648 248.895752,237.980392 250.650116,223.553085 
	C251.986435,212.563721 255.661469,202.655350 261.901306,193.741653 
	C271.870728,179.500198 286.021515,170.965576 302.383911,166.129486 
	C314.869934,162.439117 327.589325,161.569382 340.752411,162.772888 
	C357.006683,164.258987 372.332275,168.206741 386.319580,176.320908 
	C400.735382,184.683655 399.250366,182.773041 393.173889,195.396942 
	C388.494476,205.118362 383.808563,214.836655 379.137329,224.561996 
	C376.069397,230.949203 375.382568,231.196609 369.684052,227.301651 
	C360.109619,220.757431 349.908752,215.646545 338.213531,214.530045 
	C334.532471,214.178635 330.295959,214.215591 327.114594,215.742996 
	C324.473602,217.010971 322.031830,220.472519 321.260498,223.422211 
	C320.211365,227.434219 323.781738,229.728500 327.188354,230.872589 
	C335.754852,233.749542 344.484192,236.142639 353.044586,239.036438 
	C363.614532,242.609558 373.691681,247.292938 381.693451,255.314453 
	C393.405029,267.054901 397.180908,281.660980 395.610657,297.737183 
	C395.068329,303.289551 393.237793,308.716125 391.720276,314.748596 
	C391.325287,315.858612 391.205750,316.420258 391.086243,316.981873 
	C391.086243,316.981873 390.875702,317.341187 390.602356,317.726990 
	C389.942749,319.081421 389.556458,320.050079 389.170166,321.018738 
	C389.170197,321.018738 388.931366,321.383209 388.613007,321.767944 
	C387.491028,323.723816 386.687408,325.294952 385.883820,326.866089 
	C385.883820,326.866089 385.985107,326.966278 385.679626,327.013672 
	C385.261292,327.377777 385.148438,327.694550 385.035583,328.011292 
	C385.035583,328.011292 384.992249,328.007233 384.753601,328.162720 
	C384.288940,328.835205 384.062988,329.352234 383.837036,329.869263 
	C383.487061,329.934875 383.231445,330.126434 382.703186,330.805847 
	C381.423859,332.366455 380.511475,333.565125 379.599091,334.763763 
	C379.299316,334.814209 379.075165,334.972046 378.578735,335.537445 
	C377.997131,336.159607 377.763489,336.481659 377.529846,336.803741 
M374.549866,304.617676 
	C372.117401,312.017731 368.177399,318.415741 362.481720,323.819824 
	C358.806244,327.307159 358.548401,330.810547 361.509613,333.348602 
	C365.028595,336.364716 368.087341,334.948547 371.148438,332.133087 
	C378.851440,325.048309 383.686584,316.269379 386.529633,306.371735 
	C387.622864,302.565887 388.265961,298.542175 388.442291,294.587769 
	C388.601379,291.020630 386.911469,287.711182 382.923279,287.501343 
	C379.271881,287.309204 376.783905,289.382904 376.376892,293.476990 
	C376.032196,296.944611 375.308716,300.374573 374.549866,304.617676 
M378.399933,272.933380 
	C374.296112,275.725830 373.116638,280.287628 376.398132,282.585327 
	C378.147583,283.810333 381.637634,284.342041 383.311920,283.384796 
	C385.034790,282.399750 386.553558,279.088989 386.290833,277.035278 
	C385.832520,273.452667 382.782806,272.090454 378.399933,272.933380 
z"/>
<path fill="#FBBD5C" opacity="1.000000" stroke="none" 
	d="
M258.688354,284.954407 
	C252.087265,299.718262 245.108505,314.311096 238.257095,328.963470 
	C237.377686,330.844147 237.159958,333.034241 236.641754,335.493713 
	C233.298172,341.218384 229.766373,346.425598 226.638687,351.865204 
	C220.986588,361.695221 215.621613,371.689789 210.051636,381.567627 
	C204.391846,391.604706 198.742828,401.651428 192.847610,411.550110 
	C190.895599,414.827728 193.027649,415.574829 195.127029,416.580261 
	C208.581818,423.024109 222.537430,428.054626 237.183060,430.988464 
	C244.801010,432.514496 252.488480,433.693542 260.945251,435.303986 
	C272.166138,435.444214 282.586395,435.309784 293.006622,435.175354 
	C296.156891,434.655853 299.307129,434.136353 302.784424,433.562897 
	C302.784424,437.103302 302.784424,439.839722 302.784424,442.989960 
	C294.823547,442.989960 287.045776,442.989990 279.268005,442.989960 
	C264.791595,442.989960 250.295029,442.520081 235.845139,443.139313 
	C224.379532,443.630615 214.070099,440.429779 203.676697,436.360199 
	C185.916473,429.406097 169.701263,419.772614 154.348892,408.630219 
	C150.110519,405.554108 146.491196,401.625092 142.116928,397.791626 
	C141.419571,397.297760 141.167450,397.140869 140.889679,397.025208 
	C140.889679,397.025208 140.981110,397.022247 140.842255,396.845459 
	C140.435181,396.448059 140.166977,396.227417 139.898773,396.006775 
	C139.898773,396.006744 139.994888,396.006073 139.850616,395.834839 
	C139.435776,395.445038 139.165222,395.226410 138.894653,395.007782 
	C138.894669,395.007782 138.993805,395.004639 138.847977,394.836731 
	C138.432632,394.448578 138.163116,394.228363 137.893585,394.008148 
	C137.893585,394.008148 137.993729,394.007660 137.848206,393.839142 
	C137.435104,393.448639 137.167511,393.226685 136.899933,393.004700 
	C136.899948,393.004700 136.996597,393.006714 136.852707,392.835083 
	C136.439865,392.444275 136.170914,392.225098 135.901962,392.005920 
	C135.901962,392.005920 135.995148,392.005157 135.852173,391.832947 
	C135.440399,391.442535 135.171616,391.224335 134.902832,391.006104 
	C134.902832,391.006104 134.994995,391.005341 134.852081,390.832428 
	C134.439636,390.441864 134.170090,390.224243 133.900543,390.006592 
	C133.900558,390.006592 133.994537,390.004852 133.851028,389.834045 
	C133.439606,389.444244 133.171692,389.225281 132.903778,389.006317 
	C132.903778,389.006317 132.995667,389.005554 132.847473,388.830383 
	C132.417419,388.444702 132.135574,388.234192 131.853714,388.023651 
	C131.519699,388.016907 131.265106,387.871277 130.897614,387.132812 
	C130.423492,386.459656 130.141724,386.240417 129.859955,386.021210 
	C122.786591,376.744293 115.248528,367.780731 108.737129,358.124878 
	C95.409943,338.361633 86.480232,316.649902 81.971756,293.182129 
	C81.699493,291.764954 81.324104,290.367584 80.996429,288.143250 
	C80.715607,285.543823 80.435059,283.762115 80.154518,281.980408 
	C80.154518,281.980408 80.012024,281.567932 80.002907,280.948090 
	C79.716156,278.555603 79.438522,276.782990 79.160889,275.010345 
	C79.160889,275.010345 79.013420,274.593262 79.013168,273.919525 
	C78.730835,270.176788 78.448769,267.107788 78.166702,264.038788 
	C75.763229,250.926102 76.733231,237.842331 79.033386,224.875702 
	C81.009659,213.734909 82.644890,202.374268 86.237411,191.719971 
	C90.704292,178.472626 96.273476,165.459122 102.723839,153.050156 
	C112.852943,133.564178 126.839622,116.732712 143.407791,102.400986 
	C153.314392,93.831604 164.242447,86.348122 175.193893,79.106255 
	C188.089813,70.578575 202.488770,65.057724 217.201828,60.427887 
	C218.119980,60.138969 219.127365,60.133606 220.970825,59.986313 
	C248.841385,60.006062 275.834351,60.035816 302.827332,60.065567 
	C303.107056,66.288040 301.855804,67.578949 295.988281,66.997360 
	C279.373383,65.350487 262.932037,66.446915 246.403107,68.828110 
	C228.392166,71.422791 211.609009,77.298042 195.304855,84.967430 
	C193.125854,85.992416 191.082657,87.306084 188.397385,88.810562 
	C193.881699,92.225586 199.126907,95.174316 204.024170,98.617867 
	C210.848724,103.416603 218.123596,107.890236 223.893265,113.787155 
	C229.931213,119.958260 228.520874,132.060059 223.236801,137.365845 
	C200.199249,160.498001 177.340576,183.808304 154.424042,207.060928 
	C153.184158,208.319000 152.008835,209.640671 149.806839,212.001022 
	C153.424911,212.001022 155.800995,212.000961 158.177063,212.001022 
	C166.670273,212.001266 175.195358,212.463684 183.648361,211.880798 
	C193.457596,211.204422 201.110260,220.607651 202.987946,229.947083 
	C202.976196,239.262985 202.895050,247.712692 203.017059,256.159454 
	C203.068863,259.747131 203.546494,263.328644 203.830582,266.912964 
	C205.323608,267.275513 206.812866,267.932556 208.310272,267.951630 
	C216.473785,268.055664 224.697693,268.624054 232.790955,267.863495 
	C246.204193,266.603027 254.048752,272.793945 258.688354,284.954407 
M149.005722,117.005028 
	C149.005722,117.005028 149.090073,117.005585 148.648300,117.281746 
	C148.434296,117.552406 148.220291,117.823067 148.005646,118.006561 
	C148.005646,118.006561 148.092804,118.006508 147.650848,118.283058 
	C147.436218,118.553612 147.221603,118.824165 147.006485,119.005981 
	C147.006485,119.005981 147.095230,119.006081 146.653442,119.282944 
	C146.437500,119.552544 146.221573,119.822144 146.005707,120.005798 
	C146.005707,120.005798 146.091644,120.006401 145.648834,120.283386 
	C145.434998,120.555466 145.221161,120.827545 145.004501,121.006310 
	C145.004501,121.006310 145.097839,121.003998 144.661346,121.291840 
	C144.443359,121.561638 144.225372,121.831436 144.007126,122.007011 
	C144.007126,122.007011 144.101349,122.007431 143.662659,122.292084 
	C143.443237,122.560516 143.223816,122.828957 143.006302,123.004807 
	C143.006302,123.004807 143.098892,123.007240 142.655396,123.281837 
	C142.438797,123.550957 142.222198,123.820084 142.005997,124.004883 
	C142.005997,124.004883 142.090317,124.005791 141.649719,124.279442 
	C141.434753,124.547417 141.219788,124.815384 141.004669,125.004646 
	C141.004669,125.004646 141.083389,125.004967 140.644592,125.280106 
	C140.431625,125.549080 140.218674,125.818062 140.005203,126.005615 
	C140.005203,126.005615 140.086624,126.005615 139.645584,126.282181 
	C139.432678,126.553497 139.219772,126.824814 139.009689,127.012321 
	C139.009689,127.012321 139.093445,127.016182 138.671783,127.216209 
	C138.402100,127.378822 138.169647,127.583679 137.394119,128.102722 
	C134.098328,132.730057 130.748001,137.319702 127.519203,141.993317 
	C122.332848,149.500473 116.227509,156.584351 112.330139,164.718903 
	C106.997765,175.848587 103.047562,187.687149 99.124214,199.428802 
	C96.520760,207.220291 94.760139,215.324005 93.091331,223.385071 
	C92.170837,227.831497 92.218796,232.478424 91.412315,237.738281 
	C91.553154,245.825775 91.693993,253.913269 91.981224,262.857300 
	C92.990417,271.066711 93.756348,279.315826 95.088730,287.472443 
	C96.085701,293.575745 97.299568,299.739960 99.340363,305.552826 
	C102.098671,313.409393 105.361015,321.146912 109.102386,328.585754 
	C113.735809,337.798218 118.614677,346.959290 124.270622,355.561951 
	C128.593155,362.136536 134.505249,367.641937 139.328369,373.916443 
	C149.990723,387.787323 163.533844,398.139160 178.533112,407.109894 
	C183.623718,398.235199 188.690887,389.582794 193.583466,380.832764 
	C202.728668,364.477173 211.787262,348.073090 220.853867,331.673676 
	C227.909088,318.912384 234.998825,306.169189 241.920303,293.335449 
	C245.295746,287.076782 244.055649,284.483765 236.271774,281.420959 
	C223.810150,281.290100 211.348526,281.159241 198.156647,280.990906 
	C193.431320,279.335266 190.580643,276.126678 189.977768,270.135437 
	C189.983566,258.077393 190.068878,246.018234 189.902466,233.962570 
	C189.879654,232.308670 188.605057,230.672028 187.985535,229.015823 
	C187.985535,229.015823 187.995697,229.091568 187.715912,228.653275 
	C187.447906,228.436600 187.179916,228.219925 186.996857,228.003845 
	C186.996857,228.003845 186.995941,228.088791 186.716370,227.647018 
	C186.443298,227.433701 186.170212,227.220398 186.002472,226.996231 
	C186.002472,226.996231 186.013657,227.101547 185.593781,226.659851 
	C185.031662,226.461395 184.469543,226.262939 182.983215,226.008774 
	C171.494034,226.004883 160.004623,226.041458 148.515747,225.980057 
	C142.770752,225.949371 137.831665,221.949097 135.807846,216.385483 
	C133.308624,209.514908 136.090805,204.386505 140.750549,199.727264 
	C163.592453,176.887741 186.439331,154.053207 209.268082,131.200531 
	C214.673279,125.789665 214.346802,122.705612 207.932693,118.482216 
	C198.058777,111.980682 188.059402,105.663910 178.312592,98.978157 
	C174.751404,96.535393 172.450104,97.253334 169.457809,99.899437 
	C164.591736,104.202515 159.282806,108.004784 153.695694,112.285744 
	C153.464630,112.555862 153.233582,112.825981 153.004044,113.003685 
	C153.004044,113.003685 153.096451,113.005585 152.655411,113.285362 
	C152.438736,113.555222 152.222046,113.825081 152.005402,114.005150 
	C152.005402,114.005150 152.095184,114.005699 151.653702,114.283859 
	C151.437653,114.553726 151.221603,114.823593 151.005554,115.005333 
	C151.005554,115.005333 151.093689,115.005844 150.652176,115.282608 
	C150.436676,115.552284 150.221176,115.821960 150.005661,116.005363 
	C150.005661,116.005363 150.091919,116.005890 149.650620,116.281380 
	C149.435623,116.550713 149.220642,116.820045 149.005722,117.005028 
z"/>
<path fill="#F1C37A" opacity="1.000000" stroke="none" 
	d="
M302.727112,59.636227 
	C275.834351,60.035816 248.841385,60.006062 221.373505,59.968185 
	C221.585083,59.643108 222.271744,59.048744 222.957993,59.049229 
	C249.514328,59.067936 276.070618,59.140999 302.727112,59.636227 
z"/>
<path fill="#021327" opacity="1.000000" stroke="none" 
	d="
M305.158813,358.492554 
	C312.686371,358.079254 320.377594,358.012390 328.529175,358.030090 
	C328.725922,358.528503 328.457214,359.306854 328.199463,359.303223 
	C320.573151,359.196106 312.947937,359.011353 305.158813,358.492554 
z"/>
<path fill="#021327" opacity="1.000000" stroke="none" 
	d="
M269.115540,350.480896 
	C277.759094,352.343628 286.525909,354.528748 295.634827,356.888977 
	C295.379425,357.314606 294.690857,357.899811 294.197998,357.765717 
	C285.863831,355.497925 277.554016,353.140747 269.115540,350.480896 
z"/>
<path fill="#E9BF85" opacity="1.000000" stroke="none" 
	d="
M203.900024,266.457123 
	C203.546494,263.328644 203.068863,259.747131 203.017059,256.159454 
	C202.895050,247.712692 202.976196,239.262985 202.991974,230.335052 
	C203.339401,231.194702 203.948013,232.531982 203.956573,233.873093 
	C204.025024,244.582077 203.979828,255.291794 203.900024,266.457123 
z"/>
<path fill="#EDBE74" opacity="1.000000" stroke="none" 
	d="
M292.542267,435.098999 
	C282.586395,435.309784 272.166138,435.444214 261.391846,435.375671 
	C271.384521,435.122711 281.731201,435.072723 292.542267,435.098999 
z"/>
<path fill="#020F20" opacity="1.000000" stroke="none" 
	d="
M238.255707,337.683044 
	C242.212616,339.164886 246.310181,340.918945 250.705963,343.092468 
	C251.004166,343.511963 251.007645,343.969971 251.007645,343.969971 
	C245.128860,345.477142 242.258987,340.675446 238.255707,337.683044 
z"/>
<path fill="#021327" opacity="1.000000" stroke="none" 
	d="
M336.309448,357.267517 
	C340.003754,355.965088 343.989777,354.875244 348.368317,353.753845 
	C345.553528,357.712067 340.940430,357.153046 336.309448,357.267517 
z"/>
<path fill="#021327" opacity="1.000000" stroke="none" 
	d="
M351.413696,353.034607 
	C353.355652,351.937927 355.703979,350.876038 358.410706,349.788879 
	C356.452789,350.865540 354.136414,351.967468 351.413696,353.034607 
z"/>
<path fill="#021327" opacity="1.000000" stroke="none" 
	d="
M261.009399,347.611511 
	C263.164398,347.969635 265.363037,348.697174 267.778503,349.695801 
	C265.681213,349.304901 263.367126,348.642914 261.009399,347.611511 
z"/>
<path fill="#EFC078" opacity="1.000000" stroke="none" 
	d="
M78.093704,264.478455 
	C78.448769,267.107788 78.730835,270.176788 78.996689,273.698944 
	C78.660545,271.074097 78.340622,267.996124 78.093704,264.478455 
z"/>
<path fill="#021327" opacity="1.000000" stroke="none" 
	d="
M298.189423,357.434875 
	C299.438416,357.341705 300.883820,357.508545 302.647156,357.851654 
	C301.438690,357.916901 299.912262,357.805878 298.189423,357.434875 
z"/>
<path fill="#021327" opacity="1.000000" stroke="none" 
	d="
M373.242798,340.882172 
	C374.064819,339.696259 375.251038,338.531189 376.741272,337.284485 
	C375.899170,338.436249 374.753082,339.669647 373.242798,340.882172 
z"/>
<path fill="#021327" opacity="1.000000" stroke="none" 
	d="
M386.250000,326.822296 
	C386.687408,325.294952 387.491028,323.723816 388.582581,321.983704 
	C388.119080,323.469299 387.367615,325.123901 386.250000,326.822296 
z"/>
<path fill="#021327" opacity="1.000000" stroke="none" 
	d="
M379.970398,334.763245 
	C380.511475,333.565125 381.423859,332.366455 382.636292,331.043335 
	C382.071472,332.200134 381.206573,333.481415 379.970398,334.763245 
z"/>
<path fill="#021327" opacity="1.000000" stroke="none" 
	d="
M253.137451,344.406250 
	C254.277359,344.491486 255.535233,344.910187 256.977966,345.610046 
	C255.860352,345.507355 254.557892,345.123505 253.137451,344.406250 
z"/>
<path fill="#EFC078" opacity="1.000000" stroke="none" 
	d="
M80.080551,282.390320 
	C80.435059,283.762115 80.715607,285.543823 80.981461,287.729401 
	C80.646713,286.355591 80.326653,284.577911 80.080551,282.390320 
z"/>
<path fill="#EFC078" opacity="1.000000" stroke="none" 
	d="
M79.089233,275.416504 
	C79.438522,276.782990 79.716156,278.555603 79.982468,280.730865 
	C79.653290,279.363220 79.335434,277.592926 79.089233,275.416504 
z"/>
<path fill="#021327" opacity="1.000000" stroke="none" 
	d="
M389.489532,320.903076 
	C389.556458,320.050079 389.942749,319.081421 390.592896,317.934998 
	C390.507477,318.767273 390.158173,319.777344 389.489532,320.903076 
z"/>
<path fill="#021327" opacity="1.000000" stroke="none" 
	d="
M359.138855,349.793884 
	C359.662201,349.195435 360.526947,348.647339 361.706696,348.105255 
	C361.174561,348.688904 360.327423,349.266541 359.138855,349.793884 
z"/>
<path fill="#021327" opacity="1.000000" stroke="none" 
	d="
M370.361298,343.013611 
	C370.767548,342.336517 371.516174,341.662445 372.567017,340.928589 
	C372.147400,341.584747 371.425537,342.300720 370.361298,343.013611 
z"/>
<path fill="#021327" opacity="1.000000" stroke="none" 
	d="
M391.288544,316.777649 
	C391.205750,316.420258 391.325287,315.858612 391.691162,315.132019 
	C391.788605,315.502502 391.639740,316.037964 391.288544,316.777649 
z"/>
<path fill="#021327" opacity="1.000000" stroke="none" 
	d="
M362.472931,348.052856 
	C362.617798,347.721161 363.036407,347.376862 363.730347,347.032745 
	C363.585968,347.368713 363.166321,347.704498 362.472931,348.052856 
z"/>
<path fill="#021327" opacity="1.000000" stroke="none" 
	d="
M384.093506,329.731232 
	C384.062988,329.352234 384.288940,328.835205 384.767822,328.179230 
	C384.797150,328.557922 384.573547,329.075562 384.093506,329.731232 
z"/>
<path fill="#021327" opacity="1.000000" stroke="none" 
	d="
M364.334869,347.002747 
	C364.471680,346.658600 364.903137,346.299347 365.621613,345.902802 
	C365.482269,346.239563 365.055878,346.613586 364.334869,347.002747 
z"/>
<path fill="#021327" opacity="1.000000" stroke="none" 
	d="
M258.207581,346.336121 
	C258.549011,346.267334 259.076538,346.408691 259.777344,346.778198 
	C259.431641,346.852997 258.912659,346.699615 258.207581,346.336121 
z"/>
<path fill="#021327" opacity="1.000000" stroke="none" 
	d="
M331.956116,357.829681 
	C332.214050,357.523438 332.785248,357.274353 333.674255,357.096924 
	C333.417816,357.408020 332.843567,357.647430 331.956116,357.829681 
z"/>
<path fill="#021327" opacity="1.000000" stroke="none" 
	d="
M367.362061,345.022705 
	C367.501953,344.678741 367.936584,344.317688 368.658997,343.918274 
	C368.516785,344.255127 368.086792,344.630371 367.362061,345.022705 
z"/>
<path fill="#EFC372" opacity="1.000000" stroke="none" 
	d="
M137.980255,394.273987 
	C138.163116,394.228363 138.432632,394.448578 138.849304,394.886292 
	C138.686615,394.915802 138.376770,394.727844 137.980255,394.273987 
z"/>
<path fill="#021327" opacity="1.000000" stroke="none" 
	d="
M348.986725,353.730835 
	C348.991669,353.515747 349.236755,353.295929 349.738647,353.124329 
	C349.800446,353.441925 349.544220,353.626465 348.986725,353.730835 
z"/>
<path fill="#EFC372" opacity="1.000000" stroke="none" 
	d="
M140.973465,397.272583 
	C141.167450,397.140869 141.419571,397.297760 141.797363,397.659119 
	C141.651566,397.721558 141.354416,397.620758 140.973465,397.272583 
z"/>
<path fill="#EFC372" opacity="1.000000" stroke="none" 
	d="
M139.975342,396.276672 
	C140.166977,396.227417 140.435181,396.448059 140.842773,396.891235 
	C140.672058,396.924652 140.361984,396.735596 139.975342,396.276672 
z"/>
<path fill="#EFC372" opacity="1.000000" stroke="none" 
	d="
M138.978455,395.275146 
	C139.165222,395.226410 139.435776,395.445038 139.850708,395.882904 
	C139.684128,395.915619 139.373184,395.729065 138.978455,395.275146 
z"/>
<path fill="#EFC372" opacity="1.000000" stroke="none" 
	d="
M132.982758,389.275085 
	C133.171692,389.225281 133.439606,389.444244 133.851669,389.881042 
	C133.684448,389.913879 133.373077,389.728882 132.982758,389.275085 
z"/>
<path fill="#EFC372" opacity="1.000000" stroke="none" 
	d="
M136.983337,393.271545 
	C137.167511,393.226685 137.435104,393.448639 137.848099,393.889221 
	C137.684586,393.917969 137.375656,393.728149 136.983337,393.271545 
z"/>
<path fill="#EFC372" opacity="1.000000" stroke="none" 
	d="
M135.982361,392.274109 
	C136.170914,392.225098 136.439865,392.444275 136.851471,392.883423 
	C136.683670,392.916351 136.373199,392.729309 135.982361,392.274109 
z"/>
<path fill="#EFC372" opacity="1.000000" stroke="none" 
	d="
M129.958542,386.283813 
	C130.141724,386.240417 130.423492,386.459656 130.840683,386.912048 
	C130.669769,386.945618 130.363449,386.746033 129.958542,386.283813 
z"/>
<path fill="#EFC372" opacity="1.000000" stroke="none" 
	d="
M134.982819,391.274292 
	C135.171616,391.224335 135.440399,391.442535 135.852310,391.879578 
	C135.684540,391.913086 135.373672,391.727783 134.982819,391.274292 
z"/>
<path fill="#021327" opacity="1.000000" stroke="none" 
	d="
M251.339386,343.954987 
	C251.007645,343.969971 251.004166,343.511963 251.002930,343.282990 
	C251.354202,343.139374 251.706696,343.224762 252.190460,343.558350 
	C252.104843,343.851044 251.887985,343.895538 251.339386,343.954987 
z"/>
<path fill="#EFC372" opacity="1.000000" stroke="none" 
	d="
M131.954254,388.285645 
	C132.135574,388.234192 132.417419,388.444702 132.847626,388.876343 
	C132.682251,388.914185 132.368530,388.730927 131.954254,388.285645 
z"/>
<path fill="#EFC372" opacity="1.000000" stroke="none" 
	d="
M133.981064,390.274841 
	C134.170090,390.224243 134.439636,390.441864 134.852219,390.878540 
	C134.684036,390.912689 134.372803,390.727875 133.981064,390.274841 
z"/>
<path fill="#021327" opacity="1.000000" stroke="none" 
	d="
M385.237732,327.874634 
	C385.148438,327.694550 385.261292,327.377777 385.621704,326.972473 
	C385.837097,327.224396 385.693970,327.509064 385.237732,327.874634 
z"/>
<path fill="#021327" opacity="1.000000" stroke="none" 
	d="
M377.817352,336.703369 
	C377.763489,336.481659 377.997131,336.159607 378.520721,335.740784 
	C378.575378,335.963654 378.340118,336.283325 377.817352,336.703369 
z"/>
<path fill="#021327" opacity="1.000000" stroke="none" 
	d="
M366.114014,345.827087 
	C366.078461,345.612946 366.279572,345.331268 366.752686,345.052856 
	C366.870911,345.358490 366.646271,345.592987 366.114014,345.827087 
z"/>
<path fill="#F1DF6B" opacity="1.000000" stroke="none" 
	d="
M374.651367,304.219421 
	C375.308716,300.374573 376.032196,296.944611 376.376892,293.476990 
	C376.783905,289.382904 379.271881,287.309204 382.923279,287.501343 
	C386.911469,287.711182 388.601379,291.020630 388.442291,294.587769 
	C388.265961,298.542175 387.622864,302.565887 386.529633,306.371735 
	C383.686584,316.269379 378.851440,325.048309 371.148438,332.133087 
	C368.087341,334.948547 365.028595,336.364716 361.509613,333.348602 
	C358.548401,330.810547 358.806244,327.307159 362.481720,323.819824 
	C368.177399,318.415741 372.117401,312.017731 374.651367,304.219421 
z"/>
<path fill="#E8DE76" opacity="1.000000" stroke="none" 
	d="
M378.757446,272.865845 
	C382.782806,272.090454 385.832520,273.452667 386.290833,277.035278 
	C386.553558,279.088989 385.034790,282.399750 383.311920,283.384796 
	C381.637634,284.342041 378.147583,283.810333 376.398132,282.585327 
	C373.116638,280.287628 374.296112,275.725830 378.757446,272.865845 
z"/>
<path fill="#000000" opacity="1.000000" stroke="none" 
	d="
M189.947479,271.081146 
	C190.580643,276.126678 193.431320,279.335266 198.752380,281.386902 
	C211.892715,281.799103 224.437317,281.815369 236.981918,281.831604 
	C244.055649,284.483765 245.295746,287.076782 241.920303,293.335449 
	C234.998825,306.169189 227.909088,318.912384 220.853867,331.673676 
	C211.787262,348.073090 202.728668,364.477173 193.583466,380.832764 
	C188.690887,389.582794 183.623718,398.235199 178.533112,407.109894 
	C163.533844,398.139160 149.990723,387.787323 139.328369,373.916443 
	C134.505249,367.641937 128.593155,362.136536 124.270622,355.561951 
	C118.614677,346.959290 113.735809,337.798218 109.102386,328.585754 
	C105.361015,321.146912 102.098671,313.409393 99.340363,305.552826 
	C97.299568,299.739960 96.085701,293.575745 95.088730,287.472443 
	C93.756348,279.315826 92.990417,271.066711 91.981155,261.964600 
	C91.930779,253.059570 91.880478,245.047256 91.830170,237.034958 
	C92.218796,232.478424 92.170837,227.831497 93.091331,223.385071 
	C94.760139,215.324005 96.520760,207.220291 99.124214,199.428802 
	C103.047562,187.687149 106.997765,175.848587 112.330139,164.718903 
	C116.227509,156.584351 122.332848,149.500473 127.519203,141.993317 
	C130.748001,137.319702 134.098328,132.730057 137.956543,128.005676 
	C138.710464,127.611153 138.901962,127.313667 139.093445,127.016182 
	C139.093445,127.016182 139.009689,127.012321 139.273483,126.971222 
	C139.720398,126.621956 139.903519,126.313789 140.086624,126.005615 
	C140.086624,126.005615 140.005203,126.005615 140.268402,125.963150 
	C140.715530,125.615448 140.899460,125.310204 141.083389,125.004967 
	C141.083389,125.004967 141.004669,125.004646 141.268311,124.962311 
	C141.718079,124.615250 141.904190,124.310516 142.090302,124.005783 
	C142.090317,124.005791 142.005997,124.004883 142.273727,123.969246 
	C142.727264,123.624817 142.913086,123.316032 143.098907,123.007248 
	C143.098892,123.007240 143.006302,123.004807 143.271545,122.967834 
	C143.724991,122.623047 143.913177,122.315239 144.101349,122.007431 
	C144.101349,122.007431 144.007126,122.007011 144.272888,121.968567 
	C144.725052,121.621422 144.911453,121.312706 145.097839,121.003998 
	C145.097839,121.003998 145.004501,121.006310 145.273087,120.971329 
	C145.724991,120.626366 145.908310,120.316383 146.091644,120.006401 
	C146.091644,120.006401 146.005707,120.005798 146.270966,119.966446 
	C146.722549,119.620087 146.908890,119.313080 147.095230,119.006073 
	C147.095230,119.006081 147.006485,119.005981 147.276428,118.973770 
	C147.728500,118.629875 147.910645,118.318192 148.092804,118.006508 
	C148.092804,118.006508 148.005646,118.006561 148.269836,117.965744 
	C148.719376,117.618477 148.904724,117.312035 149.090073,117.005585 
	C149.090073,117.005585 149.005722,117.005028 149.271530,116.966705 
	C149.722198,116.620888 149.907059,116.313385 150.091919,116.005890 
	C150.091919,116.005890 150.005661,116.005363 150.272079,115.967880 
	C150.723557,115.622215 150.908630,115.314026 151.093689,115.005844 
	C151.093689,115.005844 151.005554,115.005333 151.272186,114.968277 
	C151.724258,114.622719 151.909729,114.314209 152.095184,114.005707 
	C152.095184,114.005699 152.005402,114.005150 152.272064,113.968353 
	C152.724640,113.622902 152.910538,113.314240 153.096436,113.005585 
	C153.096451,113.005585 153.004044,113.003685 153.272552,112.966995 
	C153.747650,112.626350 153.954224,112.322388 154.160797,112.018433 
	C159.282806,108.004784 164.591736,104.202515 169.457809,99.899437 
	C172.450104,97.253334 174.751404,96.535393 178.312592,98.978157 
	C188.059402,105.663910 198.058777,111.980682 207.932693,118.482216 
	C214.346802,122.705612 214.673279,125.789665 209.268082,131.200531 
	C186.439331,154.053207 163.592453,176.887741 140.750549,199.727264 
	C136.090805,204.386505 133.308624,209.514908 135.807846,216.385483 
	C137.831665,221.949097 142.770752,225.949371 148.515747,225.980057 
	C160.004623,226.041458 171.494034,226.004883 183.573364,226.330826 
	C184.780243,226.802429 185.396942,226.951981 186.013657,227.101532 
	C186.013657,227.101547 186.002472,226.996231 186.035782,227.266769 
	C186.378036,227.721130 186.686996,227.904968 186.995941,228.088791 
	C186.995941,228.088791 186.996857,228.003845 187.035889,228.268890 
	C187.381836,228.719803 187.688766,228.905685 187.995697,229.091568 
	C187.995697,229.091568 187.985535,229.015823 188.006653,229.445602 
	C188.351532,231.779907 188.937988,233.682068 188.955246,235.589371 
	C189.048523,245.896637 188.962158,256.205505 189.043808,266.512970 
	C189.055893,268.037994 189.632202,269.558533 189.947479,271.081146 
z"/>
<path fill="#EFC078" opacity="1.000000" stroke="none" 
	d="
M189.962616,270.608276 
	C189.632202,269.558533 189.055893,268.037994 189.043808,266.512970 
	C188.962158,256.205505 189.048523,245.896637 188.955246,235.589371 
	C188.937988,233.682068 188.351532,231.779907 187.968872,229.451385 
	C188.605057,230.672028 189.879654,232.308670 189.902466,233.962570 
	C190.068878,246.018234 189.983566,258.077393 189.962616,270.608276 
z"/>
<path fill="#E5BE7C" opacity="1.000000" stroke="none" 
	d="
M236.626846,281.626282 
	C224.437317,281.815369 211.892715,281.799103 199.117508,281.405640 
	C211.348526,281.159241 223.810150,281.290100 236.626846,281.626282 
z"/>
<path fill="#ECC081" opacity="1.000000" stroke="none" 
	d="
M91.621246,237.386627 
	C91.880478,245.047256 91.930779,253.059570 91.907959,261.536316 
	C91.693993,253.913269 91.553154,245.825775 91.621246,237.386627 
z"/>
<path fill="#EFC078" opacity="1.000000" stroke="none" 
	d="
M185.803711,226.880692 
	C185.396942,226.951981 184.780243,226.802429 184.035477,226.358688 
	C184.469543,226.262939 185.031662,226.461395 185.803711,226.880692 
z"/>
<path fill="#ECBF76" opacity="1.000000" stroke="none" 
	d="
M153.928253,112.152084 
	C153.954224,112.322388 153.747650,112.626350 153.271805,113.013206 
	C153.233582,112.825981 153.464630,112.555862 153.928253,112.152084 
z"/>
<path fill="#ECBF76" opacity="1.000000" stroke="none" 
	d="
M152.875916,113.145470 
	C152.910538,113.314240 152.724640,113.622902 152.272064,114.013245 
	C152.222046,113.825081 152.438736,113.555222 152.875916,113.145470 
z"/>
<path fill="#ECBF76" opacity="1.000000" stroke="none" 
	d="
M151.874451,114.144783 
	C151.909729,114.314209 151.724258,114.622719 151.272171,115.012344 
	C151.221603,114.823593 151.437653,114.553726 151.874451,114.144783 
z"/>
<path fill="#ECBF76" opacity="1.000000" stroke="none" 
	d="
M145.870239,120.144897 
	C145.908310,120.316383 145.724991,120.626366 145.274506,121.017990 
	C145.221161,120.827545 145.434998,120.555466 145.870239,120.144897 
z"/>
<path fill="#ECBF76" opacity="1.000000" stroke="none" 
	d="
M141.870010,124.142609 
	C141.904190,124.310516 141.718079,124.615250 141.268402,125.001663 
	C141.219788,124.815384 141.434753,124.547417 141.870010,124.142609 
z"/>
<path fill="#ECBF76" opacity="1.000000" stroke="none" 
	d="
M140.863983,125.142532 
	C140.899460,125.310204 140.715530,125.615448 140.268661,126.003860 
	C140.218674,125.818062 140.431625,125.549080 140.863983,125.142532 
z"/>
<path fill="#ECBF76" opacity="1.000000" stroke="none" 
	d="
M139.866104,126.143906 
	C139.903519,126.313789 139.720398,126.621956 139.272079,127.013123 
	C139.219772,126.824814 139.432678,126.553497 139.866104,126.143906 
z"/>
<path fill="#ECBF76" opacity="1.000000" stroke="none" 
	d="
M138.882614,127.116196 
	C138.901962,127.313667 138.710464,127.611153 138.246704,127.869713 
	C138.169647,127.583679 138.402100,127.378822 138.882614,127.116196 
z"/>
<path fill="#ECBF76" opacity="1.000000" stroke="none" 
	d="
M143.882004,122.149757 
	C143.913177,122.315239 143.724991,122.623047 143.270599,123.014130 
	C143.223816,122.828957 143.443237,122.560516 143.882004,122.149757 
z"/>
<path fill="#EFC078" opacity="1.000000" stroke="none" 
	d="
M186.856155,227.867905 
	C186.686996,227.904968 186.378036,227.721130 185.983109,227.272202 
	C186.170212,227.220398 186.443298,227.433701 186.856155,227.867905 
z"/>
<path fill="#EFC078" opacity="1.000000" stroke="none" 
	d="
M187.855804,228.872421 
	C187.688766,228.905685 187.381836,228.719803 186.993408,228.268585 
	C187.179916,228.219925 187.447906,228.436600 187.855804,228.872421 
z"/>
<path fill="#ECBF76" opacity="1.000000" stroke="none" 
	d="
M144.879593,121.147919 
	C144.911453,121.312706 144.725052,121.621422 144.273026,122.015686 
	C144.225372,121.831436 144.443359,121.561638 144.879593,121.147919 
z"/>
<path fill="#ECBF76" opacity="1.000000" stroke="none" 
	d="
M150.872925,115.144226 
	C150.908630,115.314026 150.723557,115.622215 150.272095,116.011017 
	C150.221176,115.821960 150.436676,115.552284 150.872925,115.144226 
z"/>
<path fill="#ECBF76" opacity="1.000000" stroke="none" 
	d="
M146.874329,119.144508 
	C146.908890,119.313080 146.722549,119.620087 146.270935,120.009415 
	C146.221573,119.822144 146.437500,119.552544 146.874329,119.144508 
z"/>
<path fill="#ECBF76" opacity="1.000000" stroke="none" 
	d="
M147.871826,118.144783 
	C147.910645,118.318192 147.728500,118.629875 147.276672,119.018143 
	C147.221603,118.824165 147.436218,118.553612 147.871826,118.144783 
z"/>
<path fill="#ECBF76" opacity="1.000000" stroke="none" 
	d="
M148.869186,117.143661 
	C148.904724,117.312035 148.719376,117.618477 148.270157,118.009323 
	C148.220291,117.823067 148.434296,117.552406 148.869186,117.143661 
z"/>
<path fill="#ECBF76" opacity="1.000000" stroke="none" 
	d="
M149.871277,116.143631 
	C149.907059,116.313385 149.722198,116.620888 149.271500,117.008881 
	C149.220642,116.820045 149.435623,116.550713 149.871277,116.143631 
z"/>
<path fill="#ECBF76" opacity="1.000000" stroke="none" 
	d="
M142.877151,123.144547 
	C142.913086,123.316032 142.727264,123.624817 142.273529,124.011406 
	C142.222198,123.820084 142.438797,123.550957 142.877151,123.144547 
z"/>
</svg>